<?xml version="1.0" standalone="no"?>
<!DOCTYPE svg PUBLIC "-//W3C//DTD SVG 20010904//EN"
 "http://www.w3.org/TR/2001/REC-SVG-20010904/DTD/svg10.dtd">
<svg version="1.0" xmlns="http://www.w3.org/2000/svg"
 width="735.000000pt" height="614.000000pt" viewBox="0 0 735.000000 614.000000"
 preserveAspectRatio="xMidYMid meet">

<g transform="translate(0.000000,614.000000) scale(0.100000,-0.100000)"
fill="#000000" stroke="none">
<path d="M176 6132 c5 -4 26 -21 47 -36 21 -15 37 -30 35 -32 -2 -2 -38 8 -80
21 -41 13 -99 27 -127 31 l-51 7 0 -127 0 -126 35 -48 c19 -27 49 -80 67 -117
31 -68 32 -69 40 -40 17 58 1 151 -39 233 -21 42 -40 81 -42 86 -2 5 18 5 45
1 163 -24 297 -141 380 -333 l32 -75 8 48 c10 71 -2 194 -26 258 -28 75 -77
145 -128 182 -22 17 -41 33 -41 36 -2 13 84 17 143 8 33 -6 81 -19 105 -30 24
-10 46 -17 48 -15 3 2 -6 20 -19 40 l-23 36 -209 0 c-116 0 -206 -4 -200 -8z"/>
<path d="M845 6113 c5 -16 13 -55 20 -88 l12 -60 26 55 c13 30 27 70 31 88 l6
32 -51 0 c-51 0 -51 0 -44 -27z"/>
<path d="M994 6107 c40 -52 106 -201 106 -238 0 -52 -26 -163 -48 -206 -28
-53 -102 -119 -151 -134 -49 -15 -97 -3 -118 27 -19 29 1 49 59 58 72 12 97
54 62 104 -48 69 -167 -24 -167 -131 0 -53 31 -83 102 -97 80 -17 85 -21 91
-75 l5 -47 46 40 c50 44 112 151 139 240 l16 53 17 -58 c22 -79 64 -127 135
-153 140 -53 327 15 395 145 41 78 22 179 -38 207 -39 18 -51 -2 -58 -93 -6
-95 -41 -176 -90 -211 -27 -19 -45 -23 -107 -23 -147 1 -177 44 -209 292 -11
92 -46 189 -98 276 -33 54 -36 57 -74 57 l-40 0 25 -33z"/>
<path d="M1480 6125 c33 -19 91 -19 116 0 17 13 11 14 -61 14 -74 0 -78 -1
-55 -14z"/>
<path d="M2206 6094 c-18 -137 3 -277 61 -394 27 -56 57 -95 118 -156 l82 -81
-28 -16 c-44 -25 -69 -74 -69 -136 l0 -55 37 44 c20 23 55 51 77 61 54 24 141
24 214 0 96 -32 211 -52 339 -58 67 -3 125 -9 130 -12 4 -3 22 -33 38 -66 71
-142 233 -318 338 -368 32 -15 135 -50 229 -78 212 -62 267 -88 340 -157 72
-69 85 -104 63 -171 -25 -75 -38 -80 -72 -29 -36 54 -117 104 -192 118 -98 18
-131 30 -163 59 -37 33 -40 70 -8 113 l23 31 -28 -7 c-45 -11 -74 -39 -81 -75
-6 -31 -3 -46 20 -102 5 -12 -3 -18 -33 -27 -52 -16 -136 -93 -151 -138 -7
-20 -10 -64 -8 -99 7 -113 77 -182 197 -191 48 -4 53 -3 37 8 -78 54 -99 73
-122 107 -33 50 -46 105 -33 140 12 30 45 68 72 83 16 8 15 4 -4 -22 -32 -42
-32 -100 0 -134 26 -28 59 -34 79 -14 7 7 12 36 12 65 0 48 4 58 38 95 35 37
45 42 96 46 112 9 166 -57 243 -298 25 -80 48 -150 50 -157 4 -9 -3 -10 -29
-3 -35 11 -88 13 -88 5 0 -3 18 -21 40 -41 44 -40 103 -124 127 -181 15 -37
15 -38 -4 -21 -31 29 -106 58 -149 58 -41 0 -134 -26 -134 -38 0 -4 16 -8 35
-9 173 -13 365 -199 512 -495 49 -101 113 -247 113 -261 0 -5 -22 18 -49 50
-46 55 -91 96 -172 155 -93 67 -265 132 -386 144 -169 17 -360 128 -393 228
-14 43 -6 98 16 117 34 28 111 4 158 -51 l26 -32 0 30 c0 44 -41 112 -80 133
-42 23 -120 25 -160 4 -60 -31 -87 -114 -67 -207 l8 -37 -48 22 c-64 30 -221
31 -303 3 -30 -10 -58 -21 -62 -25 -4 -3 41 -6 100 -7 91 0 114 -4 157 -24
l50 -24 -65 -6 c-78 -8 -150 -42 -204 -99 -22 -22 -38 -43 -35 -45 3 -3 44 11
91 30 53 21 113 37 154 41 l67 6 -41 -41 c-39 -39 -56 -82 -32 -82 6 0 25 7
42 16 39 20 182 32 192 15 4 -6 1 -11 -6 -11 -27 0 -174 -78 -235 -124 -174
-131 -264 -295 -292 -526 -15 -121 -28 -165 -61 -200 -52 -55 -185 -66 -250
-20 -47 33 -80 113 -87 208 -6 81 -15 102 -42 102 -27 0 -68 -51 -75 -93 -18
-97 50 -199 169 -254 51 -24 73 -28 145 -28 69 0 93 5 128 23 53 28 96 87 112
154 l13 51 17 -54 c29 -95 73 -172 130 -229 l55 -55 5 49 c6 55 11 59 91 76
72 14 102 43 101 99 -1 47 -13 74 -55 119 -36 38 -77 42 -107 12 -20 -20 -26
-55 -12 -77 10 -16 57 -33 92 -33 41 0 58 -32 30 -60 -50 -50 -130 -33 -206
44 -66 66 -96 142 -98 247 -1 74 1 81 48 173 56 110 105 174 106 141 0 -36 29
-135 47 -162 l17 -26 13 68 c26 143 103 244 233 308 68 34 220 74 220 58 0 -3
-22 -20 -48 -38 -53 -36 -118 -100 -110 -108 2 -3 29 -1 58 5 30 6 63 7 74 4
17 -6 15 -9 -20 -28 -62 -33 -103 -67 -140 -117 -19 -26 -34 -49 -34 -52 0 -3
33 6 73 20 72 25 206 37 223 20 4 -4 -3 -15 -17 -24 -111 -75 -179 -222 -179
-383 0 -125 7 -132 44 -47 63 144 149 240 261 293 68 32 172 56 163 38 -70
-144 -79 -169 -84 -227 -3 -34 -1 -75 3 -91 8 -27 10 -25 51 57 71 144 173
235 289 256 26 5 49 8 51 6 2 -1 -11 -16 -28 -33 -16 -17 -30 -39 -30 -50 0
-18 4 -19 44 -10 95 20 173 -34 211 -145 23 -69 31 -261 13 -337 -11 -45 -18
-56 -36 -58 -22 -3 -23 -2 -9 25 18 35 31 103 20 103 -5 0 -31 -23 -58 -51
-57 -58 -92 -79 -131 -79 -27 0 -27 1 16 37 79 68 106 180 55 227 -66 61 -200
34 -239 -48 -27 -58 -22 -69 20 -41 66 44 134 27 120 -31 -8 -29 -134 -164
-154 -164 -8 0 -12 20 -12 59 0 52 -3 62 -26 80 -35 28 -54 27 -54 -3 0 -32
-25 -101 -50 -136 -12 -17 -54 -45 -103 -69 -151 -73 -291 -231 -338 -383 -11
-34 -25 -108 -32 -164 l-12 -102 -90 98 c-113 124 -139 176 -139 282 -1 85 14
117 72 151 40 23 154 25 208 2 20 -8 39 -13 41 -11 9 9 -30 83 -60 114 -49 50
-124 65 -201 37 l-38 -13 5 26 c3 15 9 35 12 45 10 24 -10 22 -61 -8 -49 -29
-98 -115 -110 -192 l-7 -47 -18 23 c-10 12 -21 38 -25 57 -9 49 -21 42 -33
-19 -20 -93 17 -192 108 -289 l44 -48 -74 34 c-41 19 -133 53 -205 75 -74 23
-152 55 -179 73 -43 28 -96 97 -120 153 -7 16 -10 9 -18 -34 -10 -52 -5 -90
18 -145 7 -16 4 -18 -26 -12 -167 33 -281 131 -281 242 0 38 -2 43 -16 35 -28
-15 -51 -45 -65 -86 l-14 -39 -27 46 c-56 97 -56 146 2 210 40 44 37 62 -12
86 -57 28 -118 -12 -132 -87 -7 -33 7 -107 31 -166 6 -15 1 -13 -25 10 -72 66
-91 176 -46 270 38 80 88 115 188 129 81 12 95 50 53 140 -50 104 -215 99
-316 -11 -62 -67 -82 -121 -87 -233 -3 -78 0 -106 18 -159 27 -81 74 -155 144
-224 l54 -55 -36 -7 c-149 -28 -197 -173 -95 -286 48 -53 105 -81 166 -82 44
-1 53 3 78 31 43 47 41 102 -5 148 -56 56 -135 38 -122 -28 4 -23 2 -28 -13
-28 -27 0 -68 36 -75 65 -9 35 17 79 54 95 45 19 178 7 280 -23 47 -15 121
-34 164 -43 l79 -17 -46 -17 c-26 -10 -65 -31 -88 -48 -46 -34 -95 -95 -79
-100 5 -2 41 1 79 7 83 13 221 14 239 2 11 -6 8 -10 -10 -14 -45 -12 -119 -70
-158 -125 -22 -30 -39 -57 -37 -58 2 -2 37 8 78 23 40 14 106 28 144 30 l70 5
-27 -24 c-26 -22 -75 -105 -67 -113 3 -2 36 12 74 31 97 47 174 65 285 65 227
1 404 -90 482 -249 27 -54 33 -79 36 -153 3 -49 2 -89 -2 -89 -3 0 -11 20 -17
45 -19 75 -122 215 -158 215 -5 0 -2 -23 5 -52 23 -88 19 -97 -22 -50 -48 56
-108 96 -172 115 -58 18 -67 10 -21 -17 62 -37 170 -149 200 -208 100 -199 77
-386 -93 -743 -45 -93 -84 -173 -87 -177 -3 -4 -6 120 -6 275 1 269 2 285 24
347 13 36 29 77 37 93 8 15 10 27 5 27 -23 0 -73 -57 -105 -120 l-34 -70 -17
49 c-9 27 -41 86 -72 132 -71 106 -90 149 -99 228 -6 60 -8 62 -20 40 -7 -13
-14 -33 -14 -44 0 -11 -5 -27 -11 -35 -19 -27 -5 160 15 198 21 41 17 48 -21
29 -57 -30 -92 -84 -96 -147 -1 -22 -3 -40 -5 -40 -2 0 -38 21 -79 46 -84 51
-190 98 -298 134 -104 34 -156 63 -203 114 -23 25 -45 46 -47 46 -10 0 -4 -52
10 -87 l15 -36 -47 7 c-107 14 -210 86 -259 181 -16 30 -32 55 -36 55 -4 0
-10 -25 -13 -55 -9 -70 9 -137 47 -181 l28 -32 -72 -16 c-349 -80 -586 -53
-722 81 -76 75 -85 191 -24 314 31 62 93 119 130 119 32 0 20 19 -19 29 -48
14 -84 14 -119 1 -15 -6 -29 -8 -32 -6 -10 11 71 95 117 119 97 54 185 26 239
-76 25 -48 27 -61 27 -169 0 -136 6 -147 78 -155 92 -11 177 63 177 153 0 91
-58 221 -126 284 -112 103 -260 123 -398 53 -65 -33 -156 -120 -189 -181 -31
-58 -57 -151 -57 -207 0 -90 60 -252 116 -311 l29 -31 -68 -11 c-152 -23 -237
-125 -225 -269 8 -89 82 -163 166 -163 76 0 132 44 132 105 0 75 -78 132 -140
102 l-30 -15 0 36 c0 47 30 96 72 118 53 28 172 24 293 -10 55 -16 137 -31
183 -34 45 -2 82 -9 82 -13 0 -5 -4 -9 -9 -9 -25 0 -134 -106 -179 -174 -97
-145 -148 -325 -140 -500 7 -144 -7 -281 -32 -324 -12 -19 -19 -37 -16 -40 11
-11 67 22 83 49 10 16 20 29 23 29 3 0 15 -20 28 -43 13 -24 37 -60 53 -80
l30 -37 89 0 c80 0 90 2 104 22 25 35 21 94 -8 113 -30 20 -49 12 -69 -30 -20
-43 -57 -47 -107 -13 -45 31 -49 48 -12 48 18 0 39 10 56 26 34 34 33 41 -6
49 -53 11 -106 46 -135 88 -26 37 -28 49 -31 151 -8 247 101 490 273 608 22
16 18 9 -17 -28 -145 -154 -192 -329 -127 -472 l21 -47 14 30 c7 17 13 39 14
49 0 37 11 8 29 -81 10 -49 28 -108 40 -130 21 -41 41 -63 41 -44 0 5 15 26
34 45 40 43 76 47 111 12 56 -56 50 -167 -11 -182 l-27 -7 24 -13 c13 -7 44
-13 68 -14 40 0 49 5 87 45 48 49 84 144 84 220 0 24 3 46 8 48 6 5 46 -7 95
-28 14 -6 17 -2 17 19 0 49 -29 96 -110 181 -44 46 -80 88 -80 93 0 29 82 17
163 -24 27 -13 50 -24 52 -24 2 0 0 14 -5 32 -13 43 -42 72 -138 135 -86 57
-102 76 -102 116 0 31 65 105 127 146 45 30 149 68 159 58 3 -2 -9 -18 -25
-36 -63 -67 -100 -197 -71 -251 11 -21 13 -20 34 26 71 152 289 231 479 174
42 -12 42 -25 -1 -33 -16 -3 -44 -18 -61 -33 -34 -29 -83 -111 -59 -101 100
44 148 59 205 63 71 6 72 -7 2 -20 -46 -8 -113 -56 -139 -99 -43 -69 -12 -162
63 -192 44 -18 51 -18 98 -5 37 10 89 51 89 69 0 6 -11 6 -31 1 -20 -6 -43 -5
-67 3 -69 22 -52 96 31 136 51 25 155 28 202 6 27 -12 28 -13 7 -14 -52 -2
-88 -73 -61 -122 10 -20 12 -19 42 14 44 48 84 54 130 19 78 -59 143 -200 168
-365 7 -42 10 -147 7 -255 l-4 -182 51 0 51 0 24 58 c38 93 129 272 175 342
123 190 286 317 411 322 86 3 -5 43 -98 43 -59 0 -72 -4 -112 -32 -28 -20 -46
-27 -46 -20 0 26 72 133 128 190 l56 57 -36 0 c-20 0 -48 -4 -62 -10 -30 -11
-33 0 -15 47 6 15 24 72 40 127 62 205 127 286 231 286 83 0 141 -58 144 -142
2 -59 21 -84 58 -74 29 7 56 52 56 93 0 15 -9 43 -21 62 l-20 33 31 -22 c36
-26 60 -68 60 -107 -1 -63 -75 -166 -141 -195 -38 -17 -37 -28 4 -28 78 0 159
47 192 109 36 70 26 175 -22 239 -26 35 -117 92 -146 92 -10 0 -17 3 -15 8 32
60 39 88 31 115 -9 34 -44 63 -88 73 l-30 7 28 -32 c15 -18 27 -42 27 -54 -1
-50 -76 -100 -170 -112 -77 -9 -152 -48 -200 -102 -22 -25 -40 -50 -40 -54 0
-24 -23 -4 -40 34 -29 62 -26 106 10 155 63 88 144 130 375 197 224 65 292 99
388 196 73 74 159 194 205 285 l21 41 133 6 c129 7 257 29 347 61 103 37 238
3 288 -73 18 -27 24 -30 29 -17 18 47 -23 151 -71 176 -14 7 -25 16 -25 19 1
3 21 22 46 41 55 42 128 137 160 205 45 98 57 168 51 315 -6 165 -20 221 -96
375 -72 146 -106 251 -97 301 7 33 6 34 -13 22 -23 -14 -51 -66 -51 -92 0 -14
-10 -10 -47 15 -107 74 -204 86 -255 31 -32 -34 -41 -64 -33 -102 9 -40 30
-60 66 -60 29 0 34 8 41 70 2 14 14 30 28 38 22 13 32 12 75 0 l50 -14 -32
-17 c-29 -16 -57 -69 -47 -88 2 -4 32 -4 67 -2 69 6 122 -13 163 -59 30 -32
78 -130 104 -213 28 -88 38 -275 21 -367 -11 -57 -69 -203 -77 -195 -2 2 5 29
16 59 64 183 44 333 -61 452 -53 60 -63 59 -56 -5 l6 -51 -48 68 c-47 68 -131
154 -150 154 -5 0 -12 -18 -16 -40 -9 -54 -39 -90 -75 -90 -49 0 -120 76 -120
128 0 11 10 32 22 47 l22 28 -42 -6 c-96 -12 -127 -65 -119 -197 3 -47 12
-105 21 -129 20 -54 11 -63 -51 -59 -47 3 -50 0 -28 -42 18 -36 66 -65 180
-110 103 -41 118 -63 58 -79 -21 -6 -68 -11 -105 -11 -38 0 -68 -4 -68 -9 0
-5 13 -20 29 -34 30 -25 68 -36 200 -57 84 -14 111 -34 111 -83 0 -57 -108
-194 -167 -212 -22 -6 -22 -5 -8 22 34 65 28 141 -16 197 -26 33 -39 33 -39
-1 0 -40 -36 -107 -79 -146 -48 -44 -155 -106 -194 -114 -28 -6 -30 -4 -23 18
41 151 43 318 6 479 -94 397 -104 611 -39 848 34 128 102 234 168 262 37 15
96 -8 113 -44 6 -15 15 -26 20 -26 14 0 30 52 23 77 -7 30 -44 63 -69 63 -15
0 -17 3 -8 12 6 6 47 13 90 16 65 4 85 1 119 -17 45 -23 83 -64 83 -91 0 -34
-35 -52 -94 -48 -31 1 -56 0 -56 -4 0 -15 64 -58 100 -68 70 -19 135 11 169
77 16 32 14 69 -9 113 -25 48 -67 79 -150 108 l-65 22 73 -4 c54 -4 91 -13
139 -36 36 -17 67 -29 69 -27 2 2 -6 22 -18 46 -21 43 -79 91 -110 91 -39 0
-25 20 24 35 104 30 239 12 340 -48 55 -32 80 -60 117 -126 l29 -53 12 36 c22
66 -10 162 -77 237 l-37 41 40 -7 c64 -12 135 -53 196 -112 95 -94 89 -118
-53 -213 -86 -59 -129 -105 -129 -142 0 -15 8 -13 63 11 157 71 183 46 74 -68
-96 -101 -112 -132 -108 -205 1 -17 3 -18 19 -4 9 9 33 20 53 26 l36 10 7 -59
c19 -191 116 -293 233 -248 l28 11 -27 14 c-33 17 -48 43 -48 83 0 65 42 121
91 121 20 0 37 -12 63 -41 29 -35 38 -40 50 -30 21 18 51 103 67 189 l13 73
22 -48 21 -48 22 60 c19 50 22 74 19 145 -5 109 -44 193 -130 285 -70 76 -65
85 10 19 140 -122 226 -332 226 -549 0 -87 -3 -118 -18 -147 -25 -52 -78 -96
-131 -109 -25 -6 -45 -17 -45 -23 0 -24 46 -56 81 -56 l34 -1 -37 -34 c-48
-45 -90 -47 -115 -7 -27 44 -42 52 -69 40 -43 -20 -43 -84 1 -132 69 -75 192
-24 261 108 l28 54 17 -26 c20 -34 37 -48 70 -55 l26 -7 -26 52 c-25 50 -26
59 -27 263 -2 156 -6 225 -18 267 -27 98 -75 213 -115 274 -35 55 -163 184
-182 184 -5 0 -9 5 -9 10 0 6 26 10 59 10 35 0 110 13 178 31 202 53 309 44
365 -32 17 -23 38 -109 26 -109 -3 0 -19 7 -36 15 -39 20 -75 11 -106 -26 -72
-85 -17 -179 105 -179 63 0 107 31 142 100 24 47 28 63 23 108 -14 127 -102
209 -243 228 l-53 7 33 36 c19 21 49 73 67 117 32 74 34 87 35 189 0 105 -2
114 -34 178 -62 128 -182 223 -311 247 -203 37 -395 -128 -407 -350 -4 -63 -1
-80 16 -107 39 -62 138 -91 200 -58 38 19 42 34 30 102 -13 67 -5 130 22 193
67 153 211 161 332 20 20 -24 36 -45 34 -46 -1 -2 -22 2 -46 8 -32 8 -56 8
-97 -1 -60 -14 -69 -26 -24 -34 43 -9 104 -69 131 -130 19 -42 24 -69 24 -144
0 -87 -1 -93 -31 -130 -123 -154 -376 -191 -744 -107 l-69 15 32 45 c33 47 46
127 32 200 l-7 38 -28 -52 c-55 -102 -109 -149 -207 -183 -73 -25 -108 -25
-98 -1 4 9 10 37 13 61 l5 44 -55 -55 c-45 -45 -70 -60 -134 -83 -200 -72
-311 -122 -391 -176 -23 -16 -44 -29 -47 -29 -3 0 -6 14 -6 32 0 53 -37 115
-84 143 -24 14 -45 25 -49 25 -3 0 3 -21 14 -46 24 -52 35 -139 24 -181 -7
-27 -8 -26 -20 20 -18 72 -35 82 -35 22 -1 -72 -27 -138 -94 -238 -33 -48 -67
-110 -76 -138 l-18 -51 -27 60 c-25 55 -98 142 -110 130 -3 -3 5 -29 19 -59
40 -92 46 -146 46 -427 l0 -266 -81 164 c-44 91 -97 212 -116 270 -32 93 -37
120 -40 230 -4 104 -2 135 15 186 34 109 130 226 234 287 49 29 48 37 -3 26
-63 -15 -118 -47 -170 -100 -26 -27 -50 -49 -52 -49 -5 0 9 82 19 114 6 19 6
19 -24 0 -56 -35 -121 -131 -138 -204 l-8 -35 -6 30 c-9 51 6 149 33 208 49
108 164 193 312 233 79 21 250 20 330 -1 33 -9 90 -31 128 -49 50 -24 67 -28
67 -18 0 22 -38 79 -68 103 l-27 22 75 -6 c42 -3 105 -16 145 -31 38 -14 71
-23 73 -21 6 5 -34 62 -72 104 -17 18 -57 46 -89 61 -40 19 -53 30 -41 34 27
10 185 6 262 -8 39 -7 72 -9 72 -6 0 24 -90 103 -151 134 -59 30 -66 36 -47
40 60 14 200 48 263 66 78 21 201 26 238 9 27 -12 47 -47 47 -83 0 -30 -46
-76 -77 -76 -21 0 -22 2 -13 21 9 16 8 26 -5 45 -28 42 -97 26 -136 -32 -57
-86 26 -181 135 -153 132 33 217 186 156 283 -22 36 -79 71 -130 81 l-35 6 66
67 c146 149 196 356 125 515 -47 105 -124 165 -223 174 -99 8 -162 -42 -170
-134 -6 -60 1 -67 85 -81 83 -15 126 -43 162 -106 39 -67 46 -120 26 -188 -16
-52 -31 -75 -74 -112 l-23 -20 20 45 c23 50 28 143 9 184 -12 27 -54 55 -83
55 -24 0 -72 -27 -78 -44 -4 -10 9 -34 33 -61 51 -59 53 -102 9 -186 -18 -32
-35 -59 -39 -59 -4 0 -11 16 -15 37 -4 21 -20 49 -38 67 l-32 31 -6 -50 c-3
-28 -13 -65 -22 -81 -20 -38 -74 -87 -127 -114 -40 -20 -150 -53 -157 -46 -2
2 1 15 7 30 12 33 14 163 2 170 -5 3 -16 -12 -25 -33 -25 -56 -91 -126 -140
-150 -24 -12 -90 -35 -148 -52 -57 -17 -141 -48 -187 -69 l-83 -39 46 52 c71
81 100 148 100 232 0 39 -4 79 -8 90 -8 17 -12 12 -29 -32 -19 -51 -35 -66
-42 -40 -2 6 -12 40 -22 75 -21 74 -69 134 -128 158 -37 15 -38 14 -31 -3 19
-48 27 -74 23 -79 -3 -2 -22 3 -44 12 -89 37 -192 -5 -238 -97 -14 -29 -25
-54 -23 -55 2 -2 23 4 47 13 66 22 158 21 205 -3 59 -31 77 -73 72 -169 -5
-103 -24 -141 -133 -257 -46 -49 -84 -95 -85 -102 -1 -28 -18 34 -18 72 -1 70
-31 193 -61 257 -72 152 -216 288 -354 336 -48 17 -90 77 -107 155 -13 58 -24
64 -60 35 -21 -17 -24 -28 -23 -80 1 -41 -3 -61 -11 -61 -14 0 -118 103 -144
144 -42 64 32 104 104 56 39 -26 43 -25 37 6 -8 43 -71 101 -118 108 -56 10
-118 -8 -144 -42 -40 -50 -12 -145 64 -214 37 -34 39 -38 18 -38 -39 0 -98 37
-146 92 l-46 53 0 -40 c1 -22 7 -51 15 -65 19 -33 18 -40 -4 -40 -53 0 -63
299 -15 417 41 99 115 145 202 125 26 -6 48 -9 50 -7 9 8 -32 75 -49 80 -36
12 -19 25 24 19 122 -18 227 -107 301 -254 41 -82 46 -88 52 -65 4 15 4 58 2
97 -5 57 -13 86 -46 149 -39 77 -39 79 -17 79 41 0 143 -37 195 -70 91 -58
185 -188 236 -325 5 -14 10 -1 16 45 21 150 -33 311 -137 409 -31 29 -54 56
-51 59 16 16 155 2 221 -22 38 -14 70 -24 72 -22 1 1 -9 19 -23 39 l-25 37
-211 0 -211 0 41 -29 c63 -46 58 -51 -26 -24 -78 25 -252 44 -252 27 0 -5 7
-18 15 -28 8 -11 15 -33 15 -48 l0 -28 -37 23 c-52 33 -98 47 -149 47 -48 0
-52 5 -28 38 15 22 15 22 -36 22 -42 0 -56 -4 -70 -22 l-19 -23 6 23 c5 21 2
22 -46 22 -45 0 -51 -3 -55 -22 -2 -13 -21 -93 -42 -178 -55 -226 -58 -376
-12 -570 11 -48 -151 31 -230 113 -44 44 -73 106 -67 139 8 40 -47 -1 -65 -48
-14 -37 -12 -110 4 -149 19 -44 9 -44 -46 -2 -60 46 -120 136 -122 182 -2 54
29 72 145 91 107 17 172 43 188 73 11 20 10 21 -64 21 -80 0 -150 21 -143 42
3 7 42 27 89 44 130 47 167 72 198 131 15 30 14 31 -14 25 -14 -2 -40 -1 -59
2 l-35 7 15 34 c22 54 19 65 -21 65 -28 0 -37 -5 -49 -28 -8 -15 -41 -54 -73
-86 l-58 -58 83 4 c99 4 94 -4 -44 -57 -94 -37 -164 -87 -164 -117 0 -10 16
-20 45 -27 55 -14 58 -26 8 -36 -50 -9 -110 -41 -123 -64 -5 -11 -10 -40 -10
-65 0 -25 -4 -46 -8 -46 -5 0 -26 15 -48 34 -89 76 -149 263 -126 394 6 36 18
72 26 81 15 14 16 12 16 -22 0 -21 7 -54 16 -75 l16 -37 14 45 c7 25 29 70 48
100 l35 55 -82 3 c-95 3 -105 -4 -131 -99 -27 -93 -17 -200 29 -344 3 -11 -5
0 -19 25 -46 86 -61 155 -61 293 0 123 -1 127 -21 127 -18 0 -22 -8 -28 -46z
m1444 -828 c167 -38 264 -89 365 -190 83 -83 128 -163 154 -273 22 -89 32
-183 19 -183 -4 0 -8 4 -8 8 0 22 -90 94 -183 147 -183 105 -226 155 -227 263
0 29 -7 66 -15 82 -17 33 -66 63 -88 54 -36 -13 -48 -114 -23 -186 8 -21 10
-38 5 -38 -5 0 -27 16 -49 36 -29 26 -44 51 -56 92 -27 93 -32 103 -35 62 -4
-69 2 -113 21 -156 l19 -44 -20 11 c-60 32 -168 156 -232 267 -21 35 -37 66
-37 69 0 11 325 -6 390 -21z m2730 -232 c0 -3 -12 -21 -26 -39 -43 -56 -66
-132 -72 -233 -5 -89 -6 -93 -30 -99 -20 -5 -31 0 -50 22 -22 26 -24 36 -19
91 8 102 68 203 146 244 38 20 51 24 51 14z m-1200 -200 c30 -9 58 -19 62 -22
4 -4 -68 -7 -160 -7 -161 0 -282 -16 -282 -37 0 -4 17 -8 38 -8 48 0 119 -24
152 -51 l25 -21 -40 6 c-98 15 -193 18 -211 8 -14 -9 -15 -11 -4 -12 9 0 33
-12 55 -27 l40 -28 -125 -6 c-150 -8 -234 -28 -346 -84 -46 -23 -84 -39 -84
-35 0 16 61 89 119 143 103 95 283 173 456 197 82 12 239 4 305 -16z m938
-667 c129 -77 280 -296 270 -391 l-3 -31 -16 35 c-9 19 -30 47 -45 62 l-29 27
-1 -92 c0 -88 -22 -188 -44 -202 -5 -3 -14 12 -20 32 -24 76 -80 136 -80 86 0
-27 -30 -79 -81 -139 -29 -34 -55 -78 -63 -104 l-13 -45 -18 34 c-23 46 -16
131 19 206 l25 56 -22 -6 c-12 -4 -48 -20 -80 -35 l-58 -29 50 57 c27 31 63
71 81 87 38 36 70 95 70 130 0 25 -1 25 -57 19 l-58 -6 27 24 c68 59 89 159
48 226 -11 18 -20 35 -20 38 0 14 68 -9 118 -39z m-1986 -890 c37 -13 93 -40
124 -58 68 -41 172 -135 197 -178 l18 -31 -45 0 c-50 0 -147 -32 -166 -55 -33
-39 -40 1 -11 58 l19 37 -62 0 c-64 0 -165 -20 -230 -46 -21 -8 -40 -13 -43
-11 -7 8 71 64 122 87 49 21 49 22 25 32 -14 5 -74 13 -135 16 l-110 7 43 32
c23 17 61 34 83 38 23 4 37 11 32 15 -15 15 -116 40 -162 40 -39 1 -43 2 -26
12 77 45 214 47 327 5z m974 -211 c42 -21 96 -55 119 -77 41 -38 43 -39 49
-17 3 13 6 52 6 88 l0 64 41 -39 c44 -44 90 -118 109 -179 11 -35 14 -37 23
-20 6 10 16 44 23 74 l12 55 12 -30 c21 -48 24 -171 6 -248 -26 -109 -84 -203
-148 -238 -16 -9 -18 -5 -18 35 0 33 -7 52 -25 74 -24 29 -98 62 -137 62 -35
0 -18 17 30 30 26 7 48 14 50 15 1 1 -3 14 -9 28 -16 36 -67 67 -184 113
l-100 39 78 3 c42 2 77 5 77 8 0 3 -22 26 -49 50 -58 52 -91 114 -91 170 l0
39 25 -31 c13 -17 58 -47 101 -68z m-506 -851 c0 -11 -44 -91 -74 -135 -65
-96 -225 -249 -201 -194 26 63 34 94 34 139 1 68 -14 90 -23 33 -10 -62 -43
-125 -82 -155 -19 -14 -36 -24 -38 -22 -3 2 2 29 10 59 18 66 11 131 -17 156
-18 17 -23 17 -46 4 -47 -27 -66 -64 -72 -143 -10 -114 -32 -141 -206 -239
-64 -37 -132 -85 -164 -116 l-54 -54 7 69 c14 141 48 229 128 338 93 126 257
217 439 244 41 6 85 13 99 15 41 6 260 6 260 1z m-3030 -287 c62 -46 112 -152
112 -238 0 -58 -15 -88 -47 -96 -43 -11 -55 10 -55 95 0 92 -19 161 -60 222
-16 24 -30 47 -30 51 0 11 46 -9 80 -34z m1497 -162 c165 -35 336 -126 428
-228 44 -49 86 -115 68 -106 -4 2 -46 23 -93 46 -117 57 -183 73 -334 79 -141
6 -145 10 -52 53 l40 18 -39 8 c-21 4 -79 2 -129 -4 -49 -6 -92 -10 -94 -8 -6
7 45 37 86 52 20 7 56 13 80 14 62 0 43 16 -43 35 -56 13 -111 16 -225 13
-136 -3 -148 -2 -118 11 100 41 276 48 425 17z m-1223 -673 c-13 -25 -24 -59
-24 -75 0 -41 26 -98 63 -137 l32 -34 -57 7 c-54 6 -58 5 -58 -15 0 -39 33
-90 116 -179 46 -49 84 -92 84 -95 0 -2 -15 4 -33 15 -18 11 -52 26 -76 35
-40 14 -43 14 -36 -3 51 -119 60 -195 31 -249 l-14 -28 -11 40 c-6 22 -34 68
-62 102 -28 35 -61 88 -74 119 l-23 56 -25 -34 c-14 -18 -31 -52 -39 -75 -7
-24 -16 -43 -20 -43 -3 0 -15 21 -25 48 -13 34 -18 74 -18 148 l0 102 -27 -19
c-15 -11 -35 -37 -44 -59 -27 -61 -38 -26 -16 47 40 128 177 292 287 345 88
41 98 39 69 -19z"/>
<path d="M2584 6088 c10 -71 14 -74 45 -39 14 17 51 44 81 61 l55 30 -94 0
-94 0 7 -52z"/>
<path d="M4515 6123 c7 -16 16 -56 32 -133 4 -23 7 -22 29 22 13 25 26 65 30
87 l7 41 -53 0 c-46 0 -51 -2 -45 -17z"/>
<path d="M4670 6108 c12 -18 39 -69 61 -113 39 -77 40 -83 36 -160 -6 -108
-36 -185 -97 -246 -59 -59 -112 -78 -169 -60 -71 21 -65 74 10 84 49 6 89 31
89 56 0 10 -9 30 -21 45 -40 51 -113 23 -150 -58 -43 -95 -6 -155 104 -171 63
-10 81 -28 74 -77 -4 -33 -3 -37 11 -29 57 30 133 139 168 239 25 72 34 86 34
51 1 -41 36 -104 80 -141 117 -101 347 -60 443 78 55 79 47 199 -16 233 -44
23 -52 11 -64 -92 -15 -130 -54 -199 -126 -226 -56 -21 -162 -7 -201 27 -36
32 -56 92 -71 206 -17 129 -49 230 -103 324 -35 59 -38 62 -75 62 l-39 0 22
-32z"/>
<path d="M5147 6129 c19 -19 88 -22 119 -6 28 16 28 16 -50 17 -57 0 -77 -3
-69 -11z"/>
<path d="M5886 6118 c-12 -45 -6 -234 9 -293 31 -121 108 -242 202 -317 23
-18 42 -35 42 -38 1 -3 -12 -14 -28 -24 -16 -11 -36 -32 -45 -46 -18 -32 -31
-103 -22 -126 5 -13 11 -10 29 17 13 20 45 46 76 62 70 35 139 36 242 3 95
-31 262 -56 367 -56 l80 0 40 -72 c94 -172 227 -316 343 -371 41 -20 86 -39
102 -42 l27 -7 0 187 c0 186 0 188 -20 170 -27 -24 -34 -89 -16 -155 8 -30 13
-57 10 -59 -2 -2 -19 8 -38 22 -39 30 -72 93 -82 155 -9 57 -24 35 -23 -33 0
-45 7 -75 35 -140 22 -54 -137 100 -203 196 -32 47 -73 123 -73 136 0 15 322
-4 393 -24 15 -4 17 6 17 106 0 61 -4 111 -8 111 -5 0 -17 -9 -26 -19 -14 -15
-17 -33 -14 -75 2 -44 0 -56 -12 -56 -21 0 -148 133 -156 164 -14 58 54 75
120 31 35 -24 36 -24 36 -3 0 56 -86 128 -153 128 -36 0 -96 -26 -113 -48 -19
-24 -17 -90 5 -138 10 -22 38 -57 61 -77 43 -36 43 -37 16 -37 -39 0 -74 21
-131 79 -27 28 -52 51 -56 51 -11 0 2 -72 18 -103 14 -28 13 -28 -9 -25 -33 4
-50 91 -44 233 5 132 25 202 72 255 52 57 116 72 190 43 26 -10 15 37 -16 69
-17 17 -30 32 -28 33 6 7 101 -15 133 -30 18 -9 51 -32 74 -51 l41 -36 0 126
0 126 -39 0 -39 0 19 -37 c18 -34 25 -73 14 -73 -2 0 -21 11 -41 25 -44 30
-94 45 -153 45 l-43 0 16 25 c9 13 16 27 16 30 0 3 -22 5 -49 5 -39 0 -52 -5
-65 -22 l-17 -23 5 23 c4 21 1 22 -48 22 l-51 0 -22 -102 c-13 -57 -32 -141
-44 -188 -27 -113 -30 -324 -6 -423 9 -38 17 -71 17 -74 0 -26 -154 53 -221
114 -43 39 -79 106 -79 146 0 15 -4 27 -9 27 -16 0 -50 -51 -63 -92 -11 -39
-9 -55 19 -141 16 -49 -98 45 -148 122 -34 52 -38 102 -10 130 12 12 46 23 92
31 132 21 170 32 200 57 16 14 29 29 29 34 0 5 -34 9 -75 9 -91 0 -157 22
-134 45 8 8 52 28 99 45 119 44 190 96 190 140 0 12 -10 14 -42 12 -63 -4 -72
5 -53 57 8 24 15 45 15 47 0 2 -17 4 -38 4 -33 0 -40 -4 -57 -36 -10 -20 -41
-55 -67 -79 -26 -24 -48 -45 -48 -48 0 -3 34 -5 75 -4 41 1 75 -1 75 -5 0 -3
-33 -18 -72 -33 -112 -42 -182 -82 -202 -116 -10 -17 -16 -32 -14 -33 1 -2 24
-9 51 -16 47 -13 64 -30 29 -30 -39 0 -113 -33 -137 -62 -18 -22 -25 -41 -25
-74 0 -40 -2 -44 -18 -35 -92 49 -162 209 -161 366 1 106 43 200 45 102 1 -24
8 -56 16 -72 l15 -28 17 49 c9 27 31 73 50 101 l34 52 -88 0 -89 0 -20 -43
c-48 -98 -50 -206 -5 -346 13 -41 22 -76 20 -77 -2 -2 -17 27 -34 64 -41 92
-55 169 -50 296 3 104 2 107 -18 107 -14 0 -24 -8 -28 -22z"/>
<path d="M6262 6085 c3 -30 7 -58 11 -61 3 -4 18 7 32 24 14 17 49 44 78 61
l52 31 -89 0 -88 0 4 -55z"/>
<path d="M1861 5808 c-48 -32 -72 -68 -78 -116 -7 -54 6 -69 70 -77 104 -14
155 -48 193 -130 45 -94 26 -204 -46 -270 -26 -23 -31 -25 -25 -10 24 60 38
133 31 167 -15 81 -93 122 -149 78 -34 -27 -34 -39 3 -75 58 -55 59 -119 4
-213 l-27 -46 -14 39 c-15 43 -61 98 -75 89 -4 -3 -8 -25 -8 -48 0 -67 -48
-131 -132 -176 -59 -32 -165 -66 -174 -57 -2 1 3 21 11 42 15 42 17 91 6 140
l-7 30 -27 -52 c-32 -62 -83 -116 -135 -142 -20 -10 -91 -35 -157 -56 -66 -20
-153 -52 -194 -71 l-74 -34 44 48 c89 95 126 192 109 284 -15 76 -18 77 -40 9
-19 -57 -36 -62 -44 -14 -10 54 -49 134 -80 164 -26 26 -83 56 -91 47 -2 -2 2
-22 10 -43 7 -22 12 -41 11 -42 -1 -1 -20 4 -41 12 -80 28 -147 16 -201 -36
-32 -31 -72 -105 -62 -114 3 -3 22 2 44 11 55 24 163 22 205 -2 59 -35 74 -66
74 -154 -1 -101 -28 -154 -145 -284 l-85 -95 -12 101 c-16 138 -43 219 -102
309 -70 106 -162 189 -266 240 -51 24 -93 52 -105 69 -25 35 -50 104 -50 136
0 15 -6 24 -15 24 -12 0 -15 -19 -15 -114 l0 -115 58 -16 c177 -52 317 -167
399 -329 26 -52 63 -205 63 -265 l0 -34 -39 44 c-24 28 -80 68 -150 108 -190
109 -231 153 -231 249 0 29 -6 67 -14 86 -13 31 -59 76 -77 76 -5 0 -9 -84 -9
-187 l0 -188 123 -34 c67 -18 156 -49 196 -68 92 -44 176 -123 186 -175 7 -39
-7 -104 -30 -133 -14 -19 -15 -19 -26 -2 -47 78 -124 130 -219 147 -116 21
-190 69 -190 125 0 7 12 27 26 44 28 34 21 38 -31 17 l-34 -15 0 -225 c-1
-124 3 -226 7 -226 19 0 32 27 32 70 0 84 65 150 148 150 110 0 168 -78 241
-323 23 -74 41 -138 41 -141 0 -3 -12 -1 -26 4 -14 6 -42 10 -62 10 l-36 0 56
-57 c57 -59 110 -137 123 -183 l7 -25 -24 22 c-56 52 -175 66 -245 29 l-28
-14 28 -6 c15 -3 39 -9 55 -12 65 -13 156 -70 226 -139 125 -126 239 -321 347
-594 6 -14 -18 6 -56 47 -82 88 -167 152 -269 204 -81 41 -243 88 -301 88 -39
0 -128 30 -207 69 l-58 29 0 -84 0 -85 38 6 c20 4 46 9 57 11 19 5 19 4 -2
-13 -11 -10 -37 -31 -57 -46 -27 -21 -36 -35 -36 -59 0 -29 2 -30 33 -24 55
10 61 -7 12 -34 -45 -24 -45 -25 -45 -78 0 -51 1 -53 23 -46 24 8 146 8 153 1
3 -3 -20 -28 -50 -57 -36 -34 -69 -78 -91 -123 -35 -69 -35 -71 -35 -201 l0
-130 47 94 c55 110 147 212 228 252 50 26 162 54 172 45 3 -3 -12 -40 -33 -83
-31 -61 -39 -91 -42 -145 -3 -38 -1 -80 2 -94 6 -23 12 -16 52 65 73 146 181
237 302 254 43 6 59 -7 21 -19 -18 -6 -56 -71 -47 -80 2 -2 24 1 50 7 39 9 55
8 93 -6 90 -35 137 -141 137 -316 1 -134 -16 -220 -43 -220 -23 0 -23 -1 -4
43 8 20 15 51 15 69 l-1 33 -31 -38 c-48 -59 -116 -107 -152 -107 l-31 0 41
37 c23 21 49 54 59 73 25 48 26 122 1 149 -25 28 -88 44 -138 36 -41 -7 -103
-53 -112 -83 -2 -9 -8 -28 -11 -41 l-7 -24 31 22 c62 45 131 37 131 -14 0 -36
-128 -175 -161 -175 -3 0 -6 27 -5 61 1 52 -2 63 -23 80 -37 30 -49 24 -61
-35 -16 -79 -57 -135 -116 -158 -72 -29 -178 -103 -230 -161 -25 -29 -65 -86
-90 -127 -43 -74 -44 -76 -43 -165 l0 -90 19 73 c28 107 75 187 160 273 111
113 245 172 451 199 81 10 299 14 299 4 0 -29 -140 -223 -203 -281 -43 -40
-93 -73 -85 -56 36 73 43 103 39 186 -1 39 -21 44 -21 5 0 -46 -27 -105 -66
-145 -53 -56 -68 -56 -49 -2 26 74 15 169 -22 183 -19 8 -68 -18 -87 -46 -9
-13 -16 -43 -16 -73 0 -123 -41 -174 -220 -276 -62 -35 -133 -83 -157 -107
-41 -41 -43 -47 -43 -100 1 -56 1 -56 14 -27 19 43 114 127 180 158 31 15 120
45 199 68 183 53 241 75 302 114 93 59 248 244 302 360 10 22 23 43 28 47 6 4
46 8 90 8 103 0 246 22 358 54 152 45 238 30 310 -54 l37 -44 0 50 c0 60 -25
112 -67 140 l-31 21 58 51 c76 67 154 185 182 275 19 60 23 93 22 202 -1 170
-19 250 -90 395 -78 158 -104 232 -104 290 0 28 -4 50 -8 50 -18 0 -43 -39
-49 -74 -3 -20 -8 -36 -10 -36 -2 0 -19 11 -36 24 -46 35 -137 76 -170 76 -39
0 -92 -24 -111 -51 -21 -30 -21 -98 0 -127 12 -17 24 -22 47 -20 29 3 33 7 37
43 3 22 9 45 13 51 11 19 55 25 98 14 l39 -11 -35 -33 c-21 -20 -35 -43 -35
-57 0 -23 2 -24 78 -24 68 0 84 -3 119 -27 49 -32 114 -150 145 -265 28 -106
31 -301 4 -388 -16 -53 -62 -155 -69 -155 -2 0 8 33 21 73 45 133 39 288 -15
376 -22 34 -95 111 -106 111 -5 0 -6 -21 -2 -47 4 -28 3 -44 -2 -38 -5 6 -35
45 -67 87 -49 66 -106 118 -130 118 -3 0 -6 -11 -6 -25 0 -46 -27 -94 -55
-101 -88 -22 -176 116 -112 177 l22 22 -47 -6 c-58 -8 -80 -21 -104 -61 -27
-44 -25 -180 3 -258 22 -65 20 -68 -53 -68 -37 0 -42 -3 -37 -17 9 -27 54 -73
88 -91 17 -9 68 -30 114 -46 47 -17 86 -37 89 -44 7 -21 -63 -42 -143 -42 -73
0 -75 -1 -65 -20 17 -32 78 -57 183 -73 107 -17 143 -34 153 -72 12 -48 -68
-170 -142 -215 -42 -27 -49 -23 -29 16 17 33 20 110 6 147 -9 24 -48 67 -61
67 -3 0 -7 -16 -8 -36 -4 -52 -23 -84 -86 -142 -86 -78 -230 -143 -211 -94 47
118 45 358 -4 546 -17 66 -39 162 -47 215 -19 114 -22 356 -5 456 27 163 96
308 170 360 37 25 43 26 76 15 20 -6 46 -25 58 -41 20 -28 23 -29 34 -13 32
44 -6 124 -59 124 -16 0 -19 3 -11 11 17 17 154 24 196 10 54 -18 97 -63 97
-100 0 -39 -27 -54 -91 -49 -57 4 -64 -10 -21 -40 76 -55 156 -49 212 14 34
39 40 95 16 143 -22 43 -81 89 -128 102 -81 21 -87 30 -16 25 57 -4 89 -14
206 -63 20 -8 -20 66 -50 94 -12 12 -43 30 -68 41 l-45 19 54 17 c181 54 402
-32 469 -183 19 -40 21 -42 31 -23 28 52 1 161 -59 240 l-41 54 33 -7 c65 -13
143 -59 201 -117 87 -89 80 -117 -54 -206 -86 -57 -129 -103 -129 -136 l0 -23
48 23 c83 39 162 50 162 22 0 -5 -36 -47 -80 -93 -81 -85 -110 -132 -110 -181
0 -21 3 -25 18 -19 44 19 87 33 93 30 3 -2 6 -25 8 -50 4 -83 38 -171 85 -220
38 -40 47 -45 87 -45 24 1 55 7 68 14 l24 13 -27 7 c-59 15 -67 114 -15 180
38 48 102 26 145 -49 11 -19 13 -18 33 15 25 42 50 123 58 191 3 27 9 51 12
54 4 2 13 -17 21 -42 12 -42 14 -44 27 -27 18 25 33 78 40 145 11 106 -48 239
-155 353 -39 41 -25 39 24 -4 93 -79 177 -227 215 -379 17 -67 20 -106 18
-196 -4 -98 -7 -116 -28 -147 -30 -44 -78 -77 -130 -90 -48 -12 -50 -20 -15
-53 25 -24 42 -30 72 -26 24 3 11 -19 -25 -44 -55 -36 -89 -34 -110 10 -20 42
-39 50 -69 30 -19 -12 -24 -24 -24 -56 0 -57 51 -109 106 -109 70 0 144 63
199 169 l17 34 15 -31 c13 -28 78 -70 89 -59 3 2 -4 20 -15 38 -28 49 -33 86
-35 306 -3 229 -15 283 -93 442 -36 74 -62 110 -119 167 -40 40 -82 75 -93 79
-41 13 -20 22 62 27 45 3 127 18 182 33 69 20 125 28 180 29 122 1 172 -35
183 -129 l5 -45 -32 16 c-43 21 -93 5 -121 -40 -45 -74 -5 -153 82 -163 62 -7
91 1 132 38 74 64 87 184 30 276 -39 63 -104 102 -191 116 l-68 10 31 33 c39
40 93 167 107 251 22 127 -29 268 -133 367 -157 150 -357 161 -502 27 -53 -48
-92 -116 -113 -196 -21 -80 -19 -120 7 -166 39 -70 156 -103 209 -60 23 18 24
25 24 138 0 109 2 122 27 170 69 131 196 138 314 16 45 -46 56 -70 28 -59 -37
14 -93 17 -132 7 -43 -12 -57 -31 -24 -31 33 0 96 -55 123 -106 37 -69 53
-143 44 -211 -6 -48 -13 -63 -53 -105 -49 -53 -124 -95 -207 -119 -86 -24
-316 -17 -464 15 -68 14 -126 26 -129 26 -3 0 6 12 20 28 33 35 44 58 53 109
7 43 -2 133 -14 133 -4 0 -16 -19 -28 -42 -50 -101 -157 -180 -266 -194 l-47
-7 15 36 c14 35 20 87 10 87 -3 0 -22 -18 -42 -41 -48 -53 -101 -83 -219 -123
-130 -44 -203 -77 -290 -132 -78 -48 -89 -52 -80 -28 17 44 -37 139 -96 170
-39 20 -44 14 -22 -28 21 -39 34 -215 15 -204 -6 4 -11 15 -11 25 0 10 -6 33
-14 51 l-13 32 -6 -54 c-11 -89 -24 -121 -95 -230 -37 -58 -74 -124 -80 -147
l-13 -42 -35 70 c-31 63 -81 121 -104 121 -5 0 2 -24 15 -54 47 -105 56 -188
53 -453 -2 -133 -6 -239 -9 -235 -19 20 -180 377 -197 437 -58 198 -55 338 10
475 27 55 122 156 194 206 30 21 53 39 51 40 -7 7 -110 -26 -141 -46 -19 -11
-56 -44 -81 -73 l-47 -51 7 49 c4 28 12 60 16 73 12 31 -4 28 -47 -10 -45 -40
-81 -96 -111 -173 l-23 -60 3 91 c3 79 7 100 35 156 76 155 255 250 467 250
119 0 198 -17 292 -62 43 -21 79 -37 81 -35 8 8 -29 74 -59 104 l-34 34 70 -5
c39 -3 104 -17 144 -31 41 -15 76 -25 78 -23 6 6 -71 103 -103 130 -18 14 -51
34 -74 45 -31 14 -37 20 -25 25 26 10 159 7 236 -5 38 -6 75 -9 82 -6 23 9
-105 123 -161 144 l-52 19 147 38 c82 21 166 41 188 46 63 14 163 12 194 -5
34 -17 54 -65 41 -99 -10 -28 -47 -56 -72 -56 -14 0 -16 6 -12 28 13 66 -66
84 -122 28 -46 -46 -48 -101 -5 -148 25 -28 34 -32 78 -31 61 1 118 29 166 82
96 106 61 239 -73 278 l-58 17 52 51 c68 67 120 147 146 226 18 53 21 80 18
159 -5 110 -25 164 -84 229 -48 54 -103 82 -173 88 -47 4 -61 1 -90 -19z m809
-824 c-42 -67 -60 -134 -60 -225 0 -85 -12 -106 -55 -95 -33 8 -49 41 -48 101
2 102 67 215 145 254 23 11 44 19 45 17 2 -2 -10 -26 -27 -52z m-1170 -150
c30 -8 58 -19 62 -22 4 -4 -58 -6 -139 -4 -108 3 -164 -1 -219 -13 -40 -9 -76
-20 -79 -24 -2 -5 22 -11 53 -14 57 -5 133 -35 148 -58 5 -9 -3 -10 -32 -5
-84 14 -154 18 -190 12 l-38 -8 40 -18 c93 -43 89 -47 -57 -52 -151 -6 -225
-25 -344 -87 -38 -20 -74 -38 -79 -40 -16 -7 28 61 72 110 103 115 304 211
502 240 79 11 236 3 300 -17z m909 -649 c30 -14 70 -39 90 -57 108 -93 212
-262 210 -342 0 -36 -1 -38 -10 -17 -13 34 -48 80 -67 90 -15 8 -17 -1 -17
-93 0 -74 -5 -114 -18 -148 -10 -27 -22 -48 -25 -48 -4 0 -13 19 -20 43 -8 23
-25 57 -39 75 l-25 34 -23 -56 c-13 -31 -44 -81 -70 -112 -26 -30 -55 -75 -65
-100 l-17 -46 -13 33 c-21 50 -15 131 14 195 14 31 26 58 26 60 0 6 -85 -27
-117 -46 -18 -11 -33 -17 -33 -14 0 2 36 43 80 89 80 86 120 147 120 185 0 19
-4 20 -57 14 l-58 -7 32 34 c37 39 63 96 63 137 0 16 -11 50 -24 75 -28 57
-19 60 63 22z m-2005 -891 c78 -20 196 -82 262 -136 54 -45 124 -123 124 -139
0 -5 -20 -9 -44 -9 -51 0 -97 -14 -148 -47 -21 -13 -40 -23 -42 -23 -7 0 15
74 25 85 22 23 5 28 -80 22 -55 -3 -117 -15 -166 -32 -43 -14 -79 -24 -81 -22
-7 7 84 67 133 89 46 20 47 21 23 30 -14 5 -77 13 -140 16 l-115 7 49 33 c27
17 64 35 83 38 18 3 33 10 33 14 0 12 -113 40 -166 40 -42 1 -46 2 -29 12 64
38 182 47 279 22z m924 -158 c6 -15 44 -41 104 -71 51 -27 107 -64 125 -83
l32 -34 11 41 c6 24 8 62 4 87 -8 54 3 56 45 8 49 -55 79 -105 100 -165 l20
-54 15 37 c9 21 16 53 16 73 0 80 36 14 46 -85 12 -120 -51 -298 -128 -365
-23 -19 -45 -35 -50 -35 -4 0 -8 23 -8 50 0 65 -26 93 -109 117 -34 10 -61 21
-61 24 0 4 20 12 45 19 28 8 45 18 45 28 0 33 -71 81 -183 124 l-112 43 84 3
84 3 -57 54 c-61 58 -95 120 -96 173 0 38 12 42 28 8z"/>
<path d="M7331 4675 c-10 -24 -10 -37 1 -70 l13 -40 3 38 c2 20 2 52 0 70 l-4
32 -13 -30z"/>
<path d="M7300 4527 c-14 -6 -42 -24 -63 -40 -132 -102 -102 -317 52 -372 55
-19 61 -19 61 3 0 10 -19 36 -41 57 -95 92 -103 195 -19 255 l30 22 -21 -37
c-16 -27 -20 -46 -16 -78 5 -39 34 -77 58 -77 5 0 9 63 9 140 0 149 0 150 -50
127z"/>
<path d="M0 4119 c0 -14 7 -19 25 -19 32 0 32 12 0 27 -22 10 -25 9 -25 -8z"/>
<path d="M7200 3808 c-62 -41 -85 -121 -61 -206 6 -18 7 -32 3 -30 -112 59
-267 63 -385 9 l-42 -19 70 5 c78 6 164 -7 222 -33 l38 -18 -66 -6 c-84 -8
-167 -48 -214 -102 -19 -23 -33 -43 -31 -45 2 -3 17 2 33 10 50 26 193 67 234
67 41 0 53 -14 20 -25 -21 -6 -45 -38 -53 -72 -7 -27 -7 -27 62 -3 55 19 164
27 174 12 2 -4 -17 -16 -42 -26 -160 -65 -324 -203 -395 -334 -42 -77 -77
-195 -92 -312 -20 -155 -50 -207 -130 -229 -92 -25 -162 -7 -212 54 -35 42
-48 86 -59 193 -7 81 -18 94 -61 71 -81 -44 -65 -205 29 -284 79 -67 208 -99
306 -76 86 21 171 115 172 189 0 13 4 20 10 17 6 -3 10 -14 10 -25 0 -10 20
-58 44 -106 43 -84 97 -153 138 -175 17 -9 18 -7 12 29 -8 49 9 67 73 77 62 9
96 27 111 60 17 37 15 70 -8 114 -40 80 -110 105 -149 55 -40 -51 -16 -87 69
-102 57 -10 73 -34 42 -64 -17 -18 -34 -23 -71 -23 -122 0 -231 155 -231 330
0 55 6 75 44 152 25 48 61 106 80 128 l35 40 1 -36 c0 -58 44 -174 62 -163 4
3 8 20 8 38 0 51 37 147 78 201 62 81 126 124 260 170 8 3 12 30 12 90 l0 85
-41 37 c-52 47 -69 81 -69 137 0 63 21 82 88 76 21 -1 23 2 20 42 l-3 43 -55
3 c-45 2 -63 -2 -90 -20z"/>
<path d="M0 3776 c0 -25 5 -46 10 -46 6 0 28 -19 50 -41 22 -23 40 -37 40 -32
0 30 -33 112 -52 130 -44 39 -48 37 -48 -11z"/>
<path d="M7316 3211 c-26 -27 -27 -31 -10 -31 30 0 46 15 42 39 -3 22 -4 22
-32 -8z"/>
<path d="M7298 3082 c-25 -27 -51 -59 -58 -72 -11 -21 -11 -22 6 -15 11 4 38
14 62 22 42 15 42 15 42 64 0 27 -2 49 -4 49 -2 0 -24 -22 -48 -48z"/>
<path d="M5841 2743 c-63 -22 -133 -95 -161 -169 -31 -78 -33 -213 -6 -294 27
-77 86 -168 150 -229 47 -44 52 -51 32 -51 -42 0 -128 -53 -148 -90 -40 -76
-10 -177 71 -235 92 -67 190 -65 225 4 21 40 20 70 -3 105 -39 58 -108 74
-136 32 -13 -19 -14 -29 -5 -45 9 -18 8 -21 -12 -21 -12 0 -35 12 -50 27 -37
36 -37 75 1 114 27 26 35 29 98 29 69 0 109 -8 288 -53 55 -14 113 -28 128
-32 27 -5 24 -8 -42 -41 -44 -22 -85 -52 -112 -82 -48 -55 -42 -60 55 -43 69
12 215 15 242 4 13 -5 7 -10 -24 -22 -23 -9 -61 -33 -84 -52 -43 -36 -105
-115 -97 -124 3 -2 36 7 74 21 40 15 103 28 145 31 l75 6 -28 -23 c-25 -20
-67 -87 -67 -108 0 -4 30 6 66 24 97 47 183 66 299 65 114 0 190 -17 285 -63
151 -74 241 -230 220 -383 -4 -28 -8 -39 -9 -25 -4 61 -86 191 -141 224 -32
18 -32 18 -26 -2 4 -12 11 -44 15 -71 l8 -50 -51 53 c-56 58 -110 90 -175 105
-51 11 -52 3 -3 -26 104 -61 200 -178 234 -287 16 -51 19 -82 16 -186 -4 -111
-8 -137 -40 -230 -20 -58 -73 -179 -117 -270 l-81 -164 0 270 c0 284 6 331 50
432 11 25 18 47 15 50 -12 12 -85 -75 -110 -131 l-27 -60 -19 54 c-10 29 -46
94 -80 145 -65 99 -89 161 -89 233 0 57 -17 44 -35 -26 -12 -46 -13 -47 -20
-20 -11 42 0 129 24 182 19 43 19 46 3 40 -67 -25 -122 -98 -122 -163 0 -18
-2 -32 -5 -32 -2 0 -30 16 -62 37 -77 49 -197 104 -321 147 -111 38 -175 77
-216 128 l-26 33 0 -31 c0 -17 5 -45 11 -63 6 -18 10 -34 8 -35 -7 -6 -113 24
-155 44 -56 27 -126 101 -154 161 -28 59 -38 49 -39 -41 -1 -71 13 -122 45
-159 l24 -29 -68 -16 c-309 -70 -528 -58 -669 38 -26 17 -60 48 -77 69 -30 37
-31 43 -31 130 0 80 4 99 28 149 31 64 85 116 128 125 44 8 35 20 -26 34 -43
10 -64 10 -96 0 -23 -7 -43 -10 -45 -8 -10 10 90 107 129 126 162 78 296 -87
255 -315 -11 -59 12 -85 78 -91 103 -10 174 54 174 156 -1 228 -195 405 -406
371 -128 -21 -253 -118 -315 -245 -33 -67 -34 -74 -34 -180 1 -102 3 -115 35
-189 18 -44 48 -96 67 -116 l33 -37 -64 -11 c-83 -13 -127 -35 -170 -82 -35
-39 -66 -119 -66 -170 0 -42 51 -132 89 -157 65 -44 175 -23 206 38 14 27 15
39 6 70 -21 68 -86 102 -141 74 l-33 -17 7 43 c8 53 31 87 77 114 50 29 154
25 309 -14 68 -17 150 -31 182 -31 32 0 58 -3 58 -7 0 -5 -16 -19 -36 -32
-110 -75 -208 -229 -260 -406 -24 -83 -26 -105 -28 -300 -1 -205 -2 -212 -27
-263 l-26 -52 26 7 c31 7 68 39 77 66 5 16 11 10 36 -34 16 -30 43 -69 60 -87
31 -31 34 -32 120 -32 l89 0 15 35 c25 61 12 102 -36 107 -19 2 -29 -5 -45
-34 -27 -52 -70 -53 -123 -3 l-37 34 31 1 c34 0 84 33 84 55 0 7 -20 18 -45
24 -53 13 -106 57 -131 109 -25 51 -25 239 0 332 40 146 118 285 204 361 80
70 90 66 20 -9 -93 -99 -130 -180 -136 -292 -3 -70 0 -95 18 -143 24 -63 31
-64 50 -2 l13 40 18 -88 c19 -91 48 -169 69 -182 7 -4 25 9 46 34 42 48 80 54
115 19 57 -61 53 -150 -9 -182 l-27 -14 28 -11 c16 -6 47 -11 69 -11 35 0 47
6 78 39 42 44 77 134 87 222 l6 57 30 -9 c16 -4 40 -15 53 -23 21 -14 23 -14
26 2 12 55 -28 125 -123 217 -34 33 -58 65 -57 74 7 30 87 11 201 -47 4 -2 7
4 7 13 0 38 -46 88 -131 146 -106 71 -127 97 -110 137 30 72 165 171 256 187
l40 7 -32 -34 c-66 -69 -104 -181 -82 -245 l11 -35 32 58 c59 107 174 172 321
181 62 4 94 0 140 -15 l60 -19 -43 -12 c-48 -14 -104 -65 -120 -110 -6 -17 -9
-31 -6 -31 3 0 24 10 47 22 57 29 132 48 187 47 l45 0 -65 -22 c-85 -29 -124
-57 -149 -110 -25 -51 -26 -78 -6 -117 32 -62 95 -89 164 -70 37 10 101 53
101 68 0 4 -25 5 -56 4 -87 -6 -118 35 -72 93 45 58 158 81 253 53 37 -11 38
-12 13 -16 -28 -3 -78 -53 -78 -77 0 -18 21 -65 29 -65 3 0 13 13 23 29 22 39
79 56 118 36 129 -67 211 -337 197 -650 -3 -72 -9 -138 -13 -148 -5 -15 1 -17
50 -17 l57 0 22 53 c81 197 195 390 290 493 54 58 57 64 57 113 0 32 -4 50
-10 46 -7 -4 -7 3 0 20 9 25 15 1103 6 1094 -9 -9 -35 -159 -38 -216 -1 -35
-6 -63 -10 -63 -5 0 -8 4 -8 9 0 5 -40 52 -89 105 -104 112 -131 167 -131 272
0 80 19 118 74 146 40 20 115 26 174 14 l32 -8 0 45 c0 49 -14 67 -73 92 -46
19 -98 19 -144 0 -20 -8 -38 -13 -41 -11 -4 5 4 31 23 79 7 16 5 17 -21 5 -80
-33 -122 -88 -144 -184 -19 -80 -19 -79 -35 -58 -8 10 -20 36 -26 58 -17 61
-34 30 -34 -62 0 -92 27 -156 100 -239 l46 -52 -84 39 c-46 22 -126 51 -178
66 -171 48 -241 97 -291 199 -12 24 -25 42 -30 39 -14 -9 -9 -147 6 -176 18
-34 12 -35 -65 -12 -71 21 -120 47 -164 86 -46 39 -66 79 -74 143 l-6 50 -32
-31 c-18 -18 -34 -46 -38 -68 -6 -31 -10 -35 -22 -24 -27 22 -63 107 -63 148
0 33 7 48 40 84 27 29 38 49 34 60 -7 19 -54 46 -79 46 -29 0 -71 -28 -83 -55
-19 -41 -14 -134 9 -184 l20 -45 -23 20 c-43 37 -58 60 -74 112 -20 68 -13
121 26 188 35 62 78 91 156 105 101 18 97 14 92 75 -10 119 -109 172 -237 127z
m-632 -792 c81 -42 140 -140 149 -246 4 -54 2 -64 -20 -90 -19 -22 -30 -27
-50 -22 -24 6 -25 10 -30 99 -6 101 -29 177 -72 233 -40 51 -36 55 23 26z
m1473 -176 c175 -26 336 -97 441 -194 58 -54 117 -125 117 -142 0 -4 -38 12
-84 35 -113 58 -196 78 -344 84 -121 4 -123 5 -105 23 10 10 36 25 58 32 l40
15 -39 7 c-36 7 -102 3 -198 -11 l-43 -7 27 22 c35 28 101 51 149 51 22 0 39
4 39 8 0 21 -121 37 -283 37 -92 0 -167 1 -167 3 0 7 62 25 125 37 94 18 152
18 267 0z m-1142 -640 c0 -2 -9 -19 -20 -37 -41 -68 -20 -166 49 -226 l26 -23
-57 5 c-56 6 -58 5 -58 -18 0 -44 20 -78 88 -150 37 -39 78 -84 92 -99 l24
-28 -59 30 c-33 16 -70 33 -82 36 -22 6 -22 6 4 -52 35 -75 42 -157 17 -204
l-18 -34 -7 33 c-7 33 -30 70 -99 157 -22 28 -43 65 -46 83 -3 18 -10 34 -14
37 -11 7 -56 -63 -70 -108 -6 -20 -16 -35 -21 -32 -20 13 -43 123 -43 207 l0
88 -28 -27 c-15 -14 -35 -42 -45 -62 -16 -32 -18 -34 -21 -13 -16 104 157 345
299 416 48 24 89 33 89 21z"/>
<path d="M7337 2673 c-3 -38 -2 -90 2 -118 7 -41 9 -29 10 68 0 64 -1 117 -3
117 -2 0 -6 -30 -9 -67z"/>
<path d="M0 2117 c0 -26 6 -39 19 -47 31 -16 32 -13 16 28 -24 55 -35 62 -35
19z"/>
<path d="M449 1644 c31 -40 27 -87 -9 -118 -31 -26 -50 -32 -173 -60 -84 -19
-142 -57 -185 -120 l-32 -48 -19 43 c-10 24 -21 51 -24 59 -3 8 -6 -133 -6
-315 l-1 -330 40 61 c22 34 58 78 80 98 22 20 40 38 40 41 0 8 -53 6 -88 -5
-26 -7 -33 -6 -29 3 2 7 16 53 31 102 84 280 144 361 262 352 85 -6 134 -59
134 -144 0 -75 34 -94 87 -49 36 31 38 91 4 136 -21 29 -21 31 -3 21 76 -41
94 -132 42 -214 -25 -41 -46 -59 -126 -115 -33 -22 87 -7 135 17 77 40 117
140 96 247 -9 50 -96 138 -153 155 -47 14 -47 14 -27 49 31 53 12 120 -40 145
-48 22 -59 19 -36 -11z"/>
<path d="M90 761 c-14 -4 -40 -16 -58 -25 -30 -16 -32 -20 -32 -72 l0 -55 43
29 c66 46 117 69 182 82 l60 13 -35 14 c-42 18 -126 25 -160 14z"/>
<path d="M493 739 c-36 -23 -73 -91 -73 -134 l0 -28 33 37 c35 41 99 68 132
56 53 -19 55 -109 5 -178 -56 -77 -219 -158 -350 -173 -41 -5 -112 -21 -157
-34 l-83 -26 0 -34 c0 -19 2 -35 3 -35 2 0 30 10 63 22 85 31 231 32 294 1
l45 -21 -46 -1 c-72 -1 -219 -51 -151 -51 25 0 93 -32 129 -60 21 -16 18 -17
-90 -23 -62 -3 -123 -10 -137 -15 l-25 -9 32 -17 c27 -13 67 -16 243 -16 120
0 210 4 210 9 0 11 -85 75 -124 92 -26 12 -27 13 -6 21 11 4 43 3 71 -3 28 -6
53 -9 55 -6 9 9 -54 73 -106 108 -27 19 -50 37 -50 40 0 7 68 -4 133 -22 101
-27 207 -102 257 -182 l35 -56 53 -1 c42 0 52 3 52 17 0 15 2 15 19 -1 12 -11
31 -16 53 -14 l33 3 -54 58 c-66 70 -167 138 -268 182 -50 22 -68 35 -58 39
32 12 107 6 166 -14 34 -12 63 -19 66 -16 11 11 -12 53 -46 85 l-36 34 68 -6
c43 -4 100 -19 155 -41 47 -19 88 -33 90 -31 2 2 -14 22 -35 46 -53 58 -141
99 -218 100 l-60 1 55 26 c48 23 68 26 163 26 l109 1 -39 17 c-99 45 -248 49
-336 10 l-48 -21 8 37 c19 95 -5 169 -65 205 -42 24 -128 23 -169 -4z"/>
<path d="M4170 737 c-41 -27 -66 -68 -74 -122 l-6 -40 20 24 c59 69 138 92
173 53 25 -27 22 -99 -6 -144 -49 -82 -220 -171 -362 -189 -205 -26 -394 -119
-535 -263 l-54 -56 56 0 c48 0 58 3 71 24 22 34 131 113 210 152 131 67 274
80 377 36 l45 -19 -65 -5 c-69 -6 -150 -26 -150 -38 0 -4 15 -11 34 -14 18 -4
55 -21 82 -39 l49 -32 -110 -7 c-61 -4 -123 -11 -140 -16 l-30 -9 39 -17 c32
-13 76 -16 249 -16 l210 0 -19 22 c-10 11 -45 38 -76 58 -65 43 -59 52 26 38
32 -5 60 -7 62 -5 5 5 -101 104 -141 133 l-30 22 59 -10 c160 -24 310 -121
358 -229 12 -27 17 -29 65 -29 40 0 53 4 53 15 0 19 16 19 24 0 4 -10 19 -15
48 -15 l43 1 -82 79 c-81 78 -145 122 -255 171 -32 14 -55 29 -51 32 14 14
116 6 174 -14 33 -12 63 -19 66 -16 10 10 -28 74 -52 87 -86 46 56 35 187 -14
51 -19 94 -34 95 -32 2 1 -13 21 -32 44 -47 54 -130 94 -214 102 l-66 6 38 18
c59 26 145 39 222 32 66 -5 68 -5 43 9 -102 56 -307 58 -382 3 -27 -20 -29
-20 -21 -2 18 42 17 138 -2 174 -40 78 -151 106 -223 57z"/>
<path d="M6075 566 c10 -50 -24 -157 -90 -288 -47 -92 -95 -226 -95 -265 0 -7
11 -13 23 -13 21 0 25 7 36 58 15 68 83 217 114 250 43 46 95 65 163 59 44 -3
64 -1 67 8 8 18 -23 74 -44 80 -31 10 -22 23 22 35 64 17 97 0 101 -52 3 -47
23 -64 60 -55 57 15 62 115 7 161 -60 51 -142 41 -246 -29 -54 -36 -69 -43
-58 -25 11 18 -15 78 -41 95 l-25 16 6 -35z"/>
<path d="M2400 540 c0 -59 -27 -135 -104 -291 -32 -64 -62 -142 -70 -179 -12
-62 -12 -65 6 -68 26 -5 25 -6 49 79 31 112 94 225 142 257 35 24 51 27 119
27 76 0 78 1 78 24 0 14 -14 37 -34 56 l-35 33 42 11 c73 21 100 1 109 -79 4
-36 59 -41 82 -8 40 57 5 149 -64 168 -62 17 -137 -6 -217 -66 -17 -13 -34
-24 -36 -24 -2 0 -7 16 -10 36 -6 35 -31 74 -49 74 -4 0 -8 -22 -8 -50z"/>
<path d="M2820 255 c29 -31 29 -75 -1 -116 -23 -32 -67 -59 -98 -59 -28 0 -60
37 -67 79 -9 51 -12 53 -45 34 -31 -18 -126 -128 -148 -170 -11 -22 -10 -23
27 -23 28 0 45 7 62 25 13 14 28 25 33 25 5 0 7 -11 5 -25 l-5 -25 96 0 c89 0
101 2 139 27 23 15 45 36 48 45 12 38 27 18 21 -27 l-7 -45 39 0 40 0 6 55
c18 138 -37 225 -141 225 l-27 0 23 -25z"/>
<path d="M6498 255 c12 -15 22 -36 22 -47 0 -52 -71 -128 -120 -128 -36 0 -66
36 -75 90 -7 39 -7 40 -33 26 -41 -22 -162 -161 -162 -187 0 -5 17 -9 38 -9
28 0 45 7 62 25 13 14 27 25 30 25 4 0 5 -11 2 -25 l-4 -25 97 0 c107 0 144
14 184 68 l20 27 1 -47 c0 -48 0 -48 34 -48 41 0 46 10 46 101 0 116 -33 165
-122 176 l-42 6 22 -28z"/>
<path d="M7256 210 c-83 -49 -187 -132 -222 -177 l-25 -33 46 0 c43 0 52 5
110 58 34 31 90 73 124 92 54 31 60 38 61 68 0 19 -5 32 -13 32 -7 0 -43 -18
-81 -40z"/>
<path d="M2390 45 l-44 -45 47 0 c33 0 47 4 47 14 0 7 3 28 6 45 4 17 2 31 -3
31 -5 0 -29 -20 -53 -45z"/>
<path d="M6064 48 l-39 -43 34 -3 c51 -5 61 3 61 48 0 22 -4 40 -9 40 -5 0
-26 -19 -47 -42z"/>
</g>
</svg>
